<mxfile host="app.diagrams.net" agent="Mozilla/5.0 (Windows NT 10.0; Win64; x64) AppleWebKit/537.36 (KHTML, like Gecko) Chrome/133.0.0.0 Safari/537.36" version="26.0.14">
  <diagram name="Page-1" id="TZkgs-Uuvj9vJ_uZFDp6">
    <mxGraphModel dx="1999" dy="598" grid="1" gridSize="10" guides="1" tooltips="1" connect="1" arrows="1" fold="1" page="1" pageScale="1" pageWidth="850" pageHeight="1100" math="0" shadow="0">
      <root>
        <mxCell id="0" />
        <mxCell id="1" parent="0" />
        <mxCell id="GzLK8Yj8xFbDdb8HoI71-3" value="" style="edgeStyle=orthogonalEdgeStyle;rounded=0;orthogonalLoop=1;jettySize=auto;html=1;" edge="1" parent="1" source="GzLK8Yj8xFbDdb8HoI71-1" target="GzLK8Yj8xFbDdb8HoI71-2">
          <mxGeometry relative="1" as="geometry" />
        </mxCell>
        <mxCell id="GzLK8Yj8xFbDdb8HoI71-1" value="start" style="strokeWidth=2;html=1;shape=mxgraph.flowchart.terminator;whiteSpace=wrap;" vertex="1" parent="1">
          <mxGeometry x="250" y="30" width="100" height="60" as="geometry" />
        </mxCell>
        <mxCell id="GzLK8Yj8xFbDdb8HoI71-23" value="" style="edgeStyle=orthogonalEdgeStyle;rounded=0;orthogonalLoop=1;jettySize=auto;html=1;entryX=0.5;entryY=0;entryDx=0;entryDy=0;entryPerimeter=0;" edge="1" parent="1" source="GzLK8Yj8xFbDdb8HoI71-2" target="GzLK8Yj8xFbDdb8HoI71-6">
          <mxGeometry relative="1" as="geometry">
            <mxPoint x="300" y="240" as="targetPoint" />
          </mxGeometry>
        </mxCell>
        <mxCell id="GzLK8Yj8xFbDdb8HoI71-2" value="hari,motor" style="shape=parallelogram;html=1;strokeWidth=2;perimeter=parallelogramPerimeter;whiteSpace=wrap;rounded=1;arcSize=12;size=0.23;" vertex="1" parent="1">
          <mxGeometry x="250" y="140" width="100" height="60" as="geometry" />
        </mxCell>
        <mxCell id="GzLK8Yj8xFbDdb8HoI71-9" value="" style="edgeStyle=orthogonalEdgeStyle;rounded=0;orthogonalLoop=1;jettySize=auto;html=1;" edge="1" parent="1" source="GzLK8Yj8xFbDdb8HoI71-6" target="GzLK8Yj8xFbDdb8HoI71-8">
          <mxGeometry relative="1" as="geometry" />
        </mxCell>
        <mxCell id="GzLK8Yj8xFbDdb8HoI71-32" value="true" style="edgeLabel;html=1;align=center;verticalAlign=middle;resizable=0;points=[];" vertex="1" connectable="0" parent="GzLK8Yj8xFbDdb8HoI71-9">
          <mxGeometry x="-0.0166" relative="1" as="geometry">
            <mxPoint as="offset" />
          </mxGeometry>
        </mxCell>
        <mxCell id="GzLK8Yj8xFbDdb8HoI71-16" value="" style="edgeStyle=orthogonalEdgeStyle;rounded=0;orthogonalLoop=1;jettySize=auto;html=1;" edge="1" parent="1" source="GzLK8Yj8xFbDdb8HoI71-6" target="GzLK8Yj8xFbDdb8HoI71-15">
          <mxGeometry relative="1" as="geometry" />
        </mxCell>
        <mxCell id="GzLK8Yj8xFbDdb8HoI71-33" value="false" style="edgeLabel;html=1;align=center;verticalAlign=middle;resizable=0;points=[];" vertex="1" connectable="0" parent="GzLK8Yj8xFbDdb8HoI71-16">
          <mxGeometry x="-0.7641" y="-1" relative="1" as="geometry">
            <mxPoint as="offset" />
          </mxGeometry>
        </mxCell>
        <mxCell id="GzLK8Yj8xFbDdb8HoI71-6" value="!minggu" style="strokeWidth=2;html=1;shape=mxgraph.flowchart.decision;whiteSpace=wrap;" vertex="1" parent="1">
          <mxGeometry x="250" y="230" width="100" height="100" as="geometry" />
        </mxCell>
        <mxCell id="GzLK8Yj8xFbDdb8HoI71-36" style="edgeStyle=orthogonalEdgeStyle;rounded=0;orthogonalLoop=1;jettySize=auto;html=1;exitX=0.5;exitY=1;exitDx=0;exitDy=0;exitPerimeter=0;entryX=1;entryY=0.5;entryDx=0;entryDy=0;" edge="1" parent="1" target="GzLK8Yj8xFbDdb8HoI71-15">
          <mxGeometry relative="1" as="geometry">
            <mxPoint x="400" y="380" as="targetPoint" />
            <mxPoint x="450.6" y="330" as="sourcePoint" />
            <Array as="points">
              <mxPoint x="451" y="390" />
            </Array>
          </mxGeometry>
        </mxCell>
        <mxCell id="GzLK8Yj8xFbDdb8HoI71-38" value="false" style="edgeLabel;html=1;align=center;verticalAlign=middle;resizable=0;points=[];" vertex="1" connectable="0" parent="GzLK8Yj8xFbDdb8HoI71-36">
          <mxGeometry x="0.2569" y="2" relative="1" as="geometry">
            <mxPoint as="offset" />
          </mxGeometry>
        </mxCell>
        <mxCell id="GzLK8Yj8xFbDdb8HoI71-39" value="" style="edgeStyle=orthogonalEdgeStyle;rounded=0;orthogonalLoop=1;jettySize=auto;html=1;" edge="1" parent="1" source="GzLK8Yj8xFbDdb8HoI71-8" target="GzLK8Yj8xFbDdb8HoI71-10">
          <mxGeometry relative="1" as="geometry" />
        </mxCell>
        <mxCell id="GzLK8Yj8xFbDdb8HoI71-40" value="true" style="edgeLabel;html=1;align=center;verticalAlign=middle;resizable=0;points=[];" vertex="1" connectable="0" parent="GzLK8Yj8xFbDdb8HoI71-39">
          <mxGeometry x="-0.251" relative="1" as="geometry">
            <mxPoint as="offset" />
          </mxGeometry>
        </mxCell>
        <mxCell id="GzLK8Yj8xFbDdb8HoI71-8" value="motor" style="strokeWidth=2;html=1;shape=mxgraph.flowchart.decision;whiteSpace=wrap;" vertex="1" parent="1">
          <mxGeometry x="400" y="230" width="100" height="100" as="geometry" />
        </mxCell>
        <mxCell id="GzLK8Yj8xFbDdb8HoI71-30" value="" style="edgeStyle=orthogonalEdgeStyle;rounded=0;orthogonalLoop=1;jettySize=auto;html=1;" edge="1" parent="1" source="GzLK8Yj8xFbDdb8HoI71-10" target="GzLK8Yj8xFbDdb8HoI71-29">
          <mxGeometry relative="1" as="geometry" />
        </mxCell>
        <mxCell id="GzLK8Yj8xFbDdb8HoI71-10" value="berangkatKuliah" style="whiteSpace=wrap;html=1;strokeWidth=2;" vertex="1" parent="1">
          <mxGeometry x="550" y="250" width="120" height="60" as="geometry" />
        </mxCell>
        <mxCell id="GzLK8Yj8xFbDdb8HoI71-28" value="" style="edgeStyle=orthogonalEdgeStyle;rounded=0;orthogonalLoop=1;jettySize=auto;html=1;" edge="1" parent="1" source="GzLK8Yj8xFbDdb8HoI71-15" target="GzLK8Yj8xFbDdb8HoI71-25">
          <mxGeometry relative="1" as="geometry" />
        </mxCell>
        <mxCell id="GzLK8Yj8xFbDdb8HoI71-15" value="lanjut tidur" style="whiteSpace=wrap;html=1;strokeWidth=2;" vertex="1" parent="1">
          <mxGeometry x="240" y="360" width="120" height="60" as="geometry" />
        </mxCell>
        <mxCell id="GzLK8Yj8xFbDdb8HoI71-25" value="Finish" style="strokeWidth=2;html=1;shape=mxgraph.flowchart.terminator;whiteSpace=wrap;" vertex="1" parent="1">
          <mxGeometry x="250" y="470" width="100" height="60" as="geometry" />
        </mxCell>
        <mxCell id="GzLK8Yj8xFbDdb8HoI71-29" value="Finish" style="strokeWidth=2;html=1;shape=mxgraph.flowchart.terminator;whiteSpace=wrap;" vertex="1" parent="1">
          <mxGeometry x="560" y="360" width="100" height="60" as="geometry" />
        </mxCell>
        <mxCell id="GzLK8Yj8xFbDdb8HoI71-42" value="" style="edgeStyle=orthogonalEdgeStyle;rounded=0;orthogonalLoop=1;jettySize=auto;html=1;" edge="1" parent="1" source="GzLK8Yj8xFbDdb8HoI71-31" target="GzLK8Yj8xFbDdb8HoI71-41">
          <mxGeometry relative="1" as="geometry" />
        </mxCell>
        <mxCell id="GzLK8Yj8xFbDdb8HoI71-31" value="start" style="strokeWidth=2;html=1;shape=mxgraph.flowchart.terminator;whiteSpace=wrap;" vertex="1" parent="1">
          <mxGeometry x="-10" y="30" width="100" height="60" as="geometry" />
        </mxCell>
        <mxCell id="GzLK8Yj8xFbDdb8HoI71-48" value="" style="edgeStyle=orthogonalEdgeStyle;rounded=0;orthogonalLoop=1;jettySize=auto;html=1;" edge="1" parent="1" source="GzLK8Yj8xFbDdb8HoI71-41" target="GzLK8Yj8xFbDdb8HoI71-47">
          <mxGeometry relative="1" as="geometry" />
        </mxCell>
        <mxCell id="GzLK8Yj8xFbDdb8HoI71-41" value="waktu" style="shape=parallelogram;html=1;strokeWidth=2;perimeter=parallelogramPerimeter;whiteSpace=wrap;rounded=1;arcSize=12;size=0.23;" vertex="1" parent="1">
          <mxGeometry x="-10" y="140" width="100" height="60" as="geometry" />
        </mxCell>
        <mxCell id="GzLK8Yj8xFbDdb8HoI71-49" style="edgeStyle=orthogonalEdgeStyle;rounded=0;orthogonalLoop=1;jettySize=auto;html=1;" edge="1" parent="1" source="GzLK8Yj8xFbDdb8HoI71-47" target="GzLK8Yj8xFbDdb8HoI71-41">
          <mxGeometry relative="1" as="geometry">
            <mxPoint x="-50" y="160" as="targetPoint" />
            <Array as="points">
              <mxPoint x="-49" y="280" />
              <mxPoint x="-49" y="170" />
            </Array>
          </mxGeometry>
        </mxCell>
        <mxCell id="GzLK8Yj8xFbDdb8HoI71-50" value="false" style="edgeLabel;html=1;align=center;verticalAlign=middle;resizable=0;points=[];" vertex="1" connectable="0" parent="GzLK8Yj8xFbDdb8HoI71-49">
          <mxGeometry x="0.0692" y="1" relative="1" as="geometry">
            <mxPoint as="offset" />
          </mxGeometry>
        </mxCell>
        <mxCell id="GzLK8Yj8xFbDdb8HoI71-54" value="" style="edgeStyle=orthogonalEdgeStyle;rounded=0;orthogonalLoop=1;jettySize=auto;html=1;" edge="1" parent="1" source="GzLK8Yj8xFbDdb8HoI71-47" target="GzLK8Yj8xFbDdb8HoI71-53">
          <mxGeometry relative="1" as="geometry" />
        </mxCell>
        <mxCell id="GzLK8Yj8xFbDdb8HoI71-59" value="true" style="edgeLabel;html=1;align=center;verticalAlign=middle;resizable=0;points=[];" vertex="1" connectable="0" parent="GzLK8Yj8xFbDdb8HoI71-54">
          <mxGeometry x="-0.3" y="2" relative="1" as="geometry">
            <mxPoint as="offset" />
          </mxGeometry>
        </mxCell>
        <mxCell id="GzLK8Yj8xFbDdb8HoI71-47" value="waktu&amp;gt;19:00" style="rhombus;whiteSpace=wrap;html=1;strokeWidth=2;rounded=1;arcSize=12;" vertex="1" parent="1">
          <mxGeometry y="240" width="80" height="80" as="geometry" />
        </mxCell>
        <mxCell id="GzLK8Yj8xFbDdb8HoI71-56" value="" style="edgeStyle=orthogonalEdgeStyle;rounded=0;orthogonalLoop=1;jettySize=auto;html=1;" edge="1" parent="1" source="GzLK8Yj8xFbDdb8HoI71-53" target="GzLK8Yj8xFbDdb8HoI71-55">
          <mxGeometry relative="1" as="geometry" />
        </mxCell>
        <mxCell id="GzLK8Yj8xFbDdb8HoI71-53" value="&lt;div&gt;waktu+=01:00&lt;/div&gt;ngoding" style="whiteSpace=wrap;html=1;strokeWidth=2;rounded=1;arcSize=12;" vertex="1" parent="1">
          <mxGeometry x="-20" y="360" width="120" height="60" as="geometry" />
        </mxCell>
        <mxCell id="GzLK8Yj8xFbDdb8HoI71-57" style="edgeStyle=orthogonalEdgeStyle;rounded=0;orthogonalLoop=1;jettySize=auto;html=1;entryX=0;entryY=0.5;entryDx=0;entryDy=0;" edge="1" parent="1" source="GzLK8Yj8xFbDdb8HoI71-55" target="GzLK8Yj8xFbDdb8HoI71-53">
          <mxGeometry relative="1" as="geometry">
            <mxPoint x="-80" y="390" as="targetPoint" />
            <Array as="points">
              <mxPoint x="-79" y="500" />
              <mxPoint x="-79" y="390" />
            </Array>
          </mxGeometry>
        </mxCell>
        <mxCell id="GzLK8Yj8xFbDdb8HoI71-58" value="false" style="edgeLabel;html=1;align=center;verticalAlign=middle;resizable=0;points=[];" vertex="1" connectable="0" parent="GzLK8Yj8xFbDdb8HoI71-57">
          <mxGeometry x="0.0588" y="3" relative="1" as="geometry">
            <mxPoint as="offset" />
          </mxGeometry>
        </mxCell>
        <mxCell id="GzLK8Yj8xFbDdb8HoI71-61" value="" style="edgeStyle=orthogonalEdgeStyle;rounded=0;orthogonalLoop=1;jettySize=auto;html=1;" edge="1" parent="1" source="GzLK8Yj8xFbDdb8HoI71-55" target="GzLK8Yj8xFbDdb8HoI71-60">
          <mxGeometry relative="1" as="geometry" />
        </mxCell>
        <mxCell id="GzLK8Yj8xFbDdb8HoI71-55" value="waktu==21:00" style="strokeWidth=2;html=1;shape=mxgraph.flowchart.decision;whiteSpace=wrap;" vertex="1" parent="1">
          <mxGeometry x="-10" y="450" width="100" height="100" as="geometry" />
        </mxCell>
        <mxCell id="GzLK8Yj8xFbDdb8HoI71-63" value="" style="edgeStyle=orthogonalEdgeStyle;rounded=0;orthogonalLoop=1;jettySize=auto;html=1;" edge="1" parent="1" source="GzLK8Yj8xFbDdb8HoI71-60" target="GzLK8Yj8xFbDdb8HoI71-62">
          <mxGeometry relative="1" as="geometry" />
        </mxCell>
        <mxCell id="GzLK8Yj8xFbDdb8HoI71-60" value="waktu" style="shape=parallelogram;html=1;strokeWidth=2;perimeter=parallelogramPerimeter;whiteSpace=wrap;rounded=1;arcSize=12;size=0.23;" vertex="1" parent="1">
          <mxGeometry x="-10" y="580" width="100" height="60" as="geometry" />
        </mxCell>
        <mxCell id="GzLK8Yj8xFbDdb8HoI71-62" value="Finish" style="strokeWidth=2;html=1;shape=mxgraph.flowchart.terminator;whiteSpace=wrap;" vertex="1" parent="1">
          <mxGeometry x="-10" y="670" width="100" height="60" as="geometry" />
        </mxCell>
      </root>
    </mxGraphModel>
  </diagram>
</mxfile>
